<?xml version="1.0" standalone="no"?><!DOCTYPE svg PUBLIC "-//W3C//DTD SVG 1.1//EN" "http://www.w3.org/Graphics/SVG/1.1/DTD/svg11.dtd"><svg t="1654250443057" class="icon" viewBox="0 0 1024 1024" version="1.1" xmlns="http://www.w3.org/2000/svg" p-id="2467" xmlns:xlink="http://www.w3.org/1999/xlink" width="200" height="200"><defs><style type="text/css">@font-face { font-family: feedback-iconfont; src: url("//at.alicdn.com/t/font_1031158_u69w8yhxdu.woff2?t=1630033759944") format("woff2"), url("//at.alicdn.com/t/font_1031158_u69w8yhxdu.woff?t=1630033759944") format("woff"), url("//at.alicdn.com/t/font_1031158_u69w8yhxdu.ttf?t=1630033759944") format("truetype"); }
</style></defs><path d="M512 8.325203C234.27122 8.325203 8.325203 234.275382 8.325203 512s225.946016 503.674797 503.674797 503.674797 503.674797-225.946016 503.674797-503.674797C1015.674797 234.275382 789.72878 8.325203 512 8.325203z m0 924.097561c-231.819447 0-420.422764-188.603317-420.422764-420.422764S280.180553 91.577236 512 91.577236s420.422764 188.603317 420.422764 420.422764-188.603317 420.422764-420.422764 420.422764z" p-id="2468" fill="#ffffff"></path><path d="M694.076358 470.373984H553.626016V317.427512c0-22.990049-18.64013-41.626016-41.626016-41.626016-22.990049 0-41.626016 18.635967-41.626016 41.626016V470.373984H329.91948c-22.990049 0-41.626016 18.635967-41.626017 41.626016s18.635967 41.626016 41.626017 41.626016H470.373984v152.950634c0 22.985886 18.635967 41.626016 41.626016 41.626017 22.985886 0 41.626016-18.64013 41.626016-41.626017V553.626016h140.450342c22.985886 0 41.626016-18.635967 41.626016-41.626016s-18.635967-41.626016-41.626016-41.626016z" p-id="2469" fill="#ffffff"></path></svg>