<?xml version="1.0" standalone="no"?><!DOCTYPE svg PUBLIC "-//W3C//DTD SVG 1.1//EN" "http://www.w3.org/Graphics/SVG/1.1/DTD/svg11.dtd"><svg t="1650797565190" class="icon" viewBox="0 0 1024 1024" version="1.1" xmlns="http://www.w3.org/2000/svg" p-id="2205" xmlns:xlink="http://www.w3.org/1999/xlink" width="200" height="200"><defs><style type="text/css">@font-face { font-family: feedback-iconfont; src: url("//at.alicdn.com/t/font_1031158_u69w8yhxdu.woff2?t=1630033759944") format("woff2"), url("//at.alicdn.com/t/font_1031158_u69w8yhxdu.woff?t=1630033759944") format("woff"), url("//at.alicdn.com/t/font_1031158_u69w8yhxdu.ttf?t=1630033759944") format("truetype"); }
</style></defs><path d="M770.080382 528.341177c37.096896 0 55.646368-111.290689 0-111.290689L658.786623 417.050488c111.293759-185.485505 30.720675-222.583424 0-222.583424 0 94.233198-138.575102 199.24181-278.227746 241.130849l0 296.77517-37.095873 0L343.463004 435.594843l37.095873 0 0-18.551518-74.192769 0c-20.404726 0-37.095873 25.044396-37.095873 55.647391l0 222.585471c0 30.605042 16.691147 55.643298 37.095873 55.643298l74.193793 0 0-18.543332c158.087505 16.429181 102.974279 55.644321 259.679297 55.644321 37.096896 0 74.192769-18.548448 74.192769-55.644321 37.10099 0 55.649438-92.743264 37.10099-92.743264C788.62883 639.632889 812.391023 528.341177 770.080382 528.341177L770.080382 528.341177z" p-id="2206" fill="#ffffff"></path></svg>